<?xml version="1.0" encoding="utf-8"?>
<svg version="1.1" id="Ebene_1" xmlns="http://www.w3.org/2000/svg" xmlns:xlink="http://www.w3.org/1999/xlink" x="0px" y="0px"
	 viewBox="0 0 185 32" style="enable-background:new 0 0 185 32;" xml:space="preserve">
<style type="text/css">
	.st0{fill:#E3000B;}

</style>
<g>
	<rect x="16.36" y="-0.01" class="st0" width="2.99" height="31.51"/>
	<rect x="38.49" y="-0.01" class="st0" width="2.99" height="31.51"/>
	<rect x="22.74" y="14.25" width="12.36" height="2.99"/>
	<rect x="0.6" y="14.25" width="12.36" height="2.99"/>
	<rect x="8.53" y="1.74" transform="matrix(0.7069 -0.7073 0.7073 0.7069 -2.6638 9.4133)" width="2.99" height="12.36"/>
	<rect x="3.85" y="22.08" transform="matrix(0.7074 -0.7069 0.7069 0.7074 -13.7276 13.9863)" width="12.36" height="2.99"/>
	<path d="M52.84,13.12c-3.67,0-5.38-1.82-5.38-5.41v-7.71h2.28v7.64c0,2.19,0.66,3.81,3.15,3.81c2.48,0,3.15-1.69,3.15-3.87v-7.59
		h2.21v7.77C58.26,11.3,56.41,13.12,52.84,13.12z"/>
	<path d="M66.46,12.87V7.99c0-1.42-0.12-2.76-1.87-2.76c-1.91,0-2.21,1.92-2.21,3.29v4.35h-2.07v-7c0-0.66-0.04-1.32-0.05-1.98h2.05
		l0.04,1.35c0.75-1,1.64-1.48,2.94-1.48c2.28,0,3.24,1.25,3.24,3.42v5.68H66.46z"/>
	<path d="M70.77,1.83v-1.84h2.21v1.84H70.77z M70.84,12.87V3.88h2.07v8.99H70.84z"/>
	<path d="M79.67,12.87h-2.15l-3.7-8.98h2.23l2.67,7.09l2.62-7.09h2.01L79.67,12.87z"/>
	<path d="M85.43,8.79v0.14c0,1.5,0.77,2.83,2.4,2.83c1.16,0,1.94-0.68,2.1-1.85h1.99c-0.34,2.23-2.1,3.15-4.17,3.15
		c-2.87,0-4.36-1.8-4.36-4.54c0-2.81,1.48-4.84,4.47-4.84c3.21,0,4.1,2.32,4.1,5.11H85.43z M87.84,5c-1.48,0-2.23,1.18-2.35,2.53
		h4.47C89.96,6.19,89.31,5,87.84,5z"/>
	<path d="M98.09,5.64c-1.76,0-2.39,1-2.39,2.65v4.58h-2.07c0,0,0.04-4.22,0-6.32c0,0-0.04-1.75-0.05-2.65h2.01l0.05,1.48
		c0.6-1.05,1.5-1.55,2.74-1.55c0.14,0,0.3,0.02,0.48,0.04v1.85C98.59,5.68,98.34,5.64,98.09,5.64z"/>
	<path d="M103.05,13.09c-1.98,0-3.69-0.75-3.76-3.03h2.06c0.05,1.16,0.64,1.74,1.78,1.74c0.84,0,1.76-0.44,1.76-1.37
		c0-0.53-0.32-0.86-0.82-1.09c-0.25-0.11-0.54-0.2-0.86-0.28c-0.32-0.09-0.64-0.16-0.98-0.25c-1.33-0.34-2.72-0.84-2.72-2.51
		c0-1.98,2.08-2.64,3.72-2.64c1.87,0,3.4,0.73,3.49,2.83h-2.03c-0.03-1.07-0.55-1.55-1.59-1.55c-0.73,0-1.62,0.34-1.62,1.16
		c0,0.5,0.34,0.78,0.84,1.02c0.25,0.11,0.54,0.2,0.86,0.28c0.32,0.09,0.68,0.16,1.01,0.25c1.37,0.36,2.76,0.87,2.76,2.55
		C106.97,12.39,104.88,13.09,103.05,13.09z"/>
	<path d="M108.62,1.83v-1.84h2.21v1.84H108.62z M108.69,12.87V3.88h2.07v8.99H108.69z"/>
	<path d="M116.17,12.98c-1.6,0-2.51-0.52-2.51-2.23V5.28h-1.73V3.88h1.73V2.26l2.07-0.84v2.46h2.05v1.41h-2.05v4.7
		c0,1.03,0.09,1.5,1.23,1.5c0.28,0,0.53-0.07,0.86-0.09v1.46C117.24,12.93,116.71,12.98,116.17,12.98z"/>
	<path d="M124.81,12.87c-0.07-0.43-0.1-0.84-0.14-1.23c-0.73,1.05-1.69,1.43-2.96,1.43c-1.71,0-3.17-0.87-3.17-2.73
		c0-3.06,3.85-3.03,6.02-3.03c0-0.16,0-0.3,0-0.46c0-1.23-0.41-1.96-1.73-1.96c-1.05,0-1.57,0.46-1.64,1.53h-2
		c0.02-2.12,1.8-2.76,3.58-2.76c2.39,0,3.79,0.77,3.79,3.42v2.65c0,1.03,0.05,2.07,0.17,3.14H124.81z M120.18,1.79v-1.8h2.01v1.8
		H120.18z M123.85,8.42c-1.27,0-3.26,0.21-3.26,1.83c0,0.96,0.84,1.51,1.74,1.51c1.98,0,2.25-1.71,2.25-3.33
		C124.31,8.42,124.08,8.42,123.85,8.42z M123.73,1.79v-1.8h2.01v1.8H123.73z"/>
	<path d="M131.81,12.98c-1.61,0-2.51-0.52-2.51-2.23V5.28h-1.73V3.88h1.73V2.26l2.07-0.84v2.46h2.05v1.41h-2.05v4.7
		c0,1.03,0.09,1.5,1.23,1.5c0.29,0,0.54-0.07,0.86-0.09v1.46C132.88,12.93,132.34,12.98,131.81,12.98z"/>
	<path d="M137.99,13.09c-1.97,0-3.69-0.75-3.75-3.03h2.06c0.05,1.16,0.64,1.74,1.78,1.74c0.83,0,1.76-0.44,1.76-1.37
		c0-0.53-0.32-0.86-0.82-1.09c-0.25-0.11-0.53-0.2-0.85-0.28c-0.32-0.09-0.64-0.16-0.98-0.25c-1.33-0.34-2.73-0.84-2.73-2.51
		c0-1.98,2.08-2.64,3.72-2.64c1.87,0,3.4,0.73,3.49,2.83h-2.03c-0.04-1.07-0.55-1.55-1.59-1.55c-0.73,0-1.62,0.34-1.62,1.16
		c0,0.5,0.34,0.78,0.84,1.02c0.25,0.11,0.53,0.2,0.85,0.28c0.32,0.09,0.68,0.16,1.02,0.25c1.37,0.36,2.76,0.87,2.76,2.55
		C141.91,12.39,139.83,13.09,137.99,13.09z"/>
	<path d="M146.82,13.09c-1.98,0-3.69-0.75-3.76-3.03h2.07c0.05,1.16,0.64,1.74,1.78,1.74c0.84,0,1.77-0.44,1.77-1.37
		c0-0.53-0.32-0.86-0.82-1.09c-0.25-0.11-0.54-0.2-0.85-0.28c-0.32-0.09-0.64-0.16-0.98-0.25c-1.33-0.34-2.72-0.84-2.72-2.51
		c0-1.98,2.08-2.64,3.72-2.64c1.87,0,3.4,0.73,3.49,2.83h-2.03c-0.04-1.07-0.55-1.55-1.58-1.55c-0.73,0-1.62,0.34-1.62,1.16
		c0,0.5,0.34,0.78,0.84,1.02c0.25,0.11,0.53,0.2,0.85,0.28c0.32,0.09,0.68,0.16,1.02,0.25c1.37,0.36,2.76,0.87,2.76,2.55
		C150.74,12.39,148.66,13.09,146.82,13.09z"/>
	<path d="M157.15,13.05c-1.25,0-2.05-0.43-2.78-1.39v4.59h-2.07V6.28c0-0.78-0.02-1.57-0.07-2.39h2.03l0.05,1.42
		c0.69-1.09,1.67-1.62,2.99-1.62c2.67,0,3.84,2.16,3.84,4.54C161.16,10.68,159.89,13.05,157.15,13.05z M156.76,5.07
		c-1.83,0-2.42,1.78-2.42,3.35c0,1.48,0.48,3.28,2.26,3.28c1.87,0,2.44-1.76,2.44-3.35C159.04,6.87,158.52,5.07,156.76,5.07z"/>
	<path d="M162.78,1.83v-1.84h2.21v1.84H162.78z M162.85,12.87V3.88h2.07v8.99H162.85z"/>
	<path d="M170.33,12.98c-1.6,0-2.51-0.52-2.51-2.23V5.28h-1.73V3.88h1.73V2.26l2.07-0.84v2.46h2.05v1.41h-2.05v4.7
		c0,1.03,0.09,1.5,1.23,1.5c0.28,0,0.54-0.07,0.85-0.09v1.46C171.4,12.93,170.87,12.98,170.33,12.98z"/>
	<path d="M178.98,12.87c-0.07-0.43-0.1-0.84-0.14-1.23c-0.73,1.05-1.69,1.43-2.96,1.43c-1.71,0-3.17-0.87-3.17-2.73
		c0-3.06,3.85-3.03,6.02-3.03c0-0.16,0-0.3,0-0.46c0-1.23-0.41-1.96-1.73-1.96c-1.05,0-1.57,0.46-1.64,1.53h-1.99
		c0.02-2.12,1.8-2.76,3.58-2.76c2.38,0,3.79,0.77,3.79,3.42v2.65c0,1.03,0.05,2.07,0.18,3.14H178.98z M178.02,8.42
		c-1.26,0-3.26,0.21-3.26,1.83c0,0.96,0.84,1.51,1.74,1.51c1.98,0,2.25-1.71,2.25-3.33C178.48,8.42,178.25,8.42,178.02,8.42z"/>
	<path d="M182.79,12.87V-0.01h2.07v12.88H182.79z"/>
	<path d="M52.27,31.5h-4.81V18.62h4.88c2.15,0,4.29,0.66,4.29,3.24c0,1.58-0.94,2.51-2.39,2.92c1.69,0.3,2.87,1.28,2.87,3.12
		C57.12,30.75,54.59,31.5,52.27,31.5z M52.01,20.24h-2.39v3.87h2.21c1.37,0,2.58-0.45,2.58-1.99
		C54.41,20.71,53.27,20.24,52.01,20.24z M52.11,25.64h-2.49v4.24h2.12c1.53,0,3.12-0.25,3.12-2.1
		C54.86,26.07,53.63,25.64,52.11,25.64z"/>
	<path d="M64.49,31.5c-0.07-0.43-0.11-0.84-0.14-1.23c-0.73,1.05-1.69,1.42-2.96,1.42c-1.71,0-3.17-0.87-3.17-2.73
		c0-3.06,3.85-3.03,6.02-3.03c0-0.16,0-0.3,0-0.46c0-1.23-0.41-1.96-1.73-1.96c-1.05,0-1.57,0.46-1.64,1.53h-2
		c0.02-2.12,1.8-2.76,3.58-2.76c2.39,0,3.79,0.77,3.79,3.42v2.65c0,1.03,0.05,2.07,0.18,3.13H64.49z M63.53,27.05
		c-1.26,0-3.26,0.21-3.26,1.83c0,0.96,0.84,1.52,1.74,1.52c1.98,0,2.24-1.71,2.24-3.33C63.99,27.05,63.76,27.05,63.53,27.05z"/>
	<path d="M71.38,31.71c-1.98,0-3.69-0.75-3.76-3.03h2.07c0.05,1.16,0.64,1.74,1.78,1.74c0.84,0,1.76-0.45,1.76-1.37
		c0-0.53-0.32-0.85-0.82-1.09c-0.25-0.11-0.53-0.2-0.86-0.29c-0.32-0.09-0.64-0.16-0.98-0.25c-1.34-0.34-2.73-0.84-2.73-2.51
		c0-1.98,2.08-2.64,3.72-2.64c1.87,0,3.4,0.73,3.49,2.83h-2.03c-0.04-1.07-0.55-1.55-1.59-1.55c-0.73,0-1.62,0.34-1.62,1.16
		c0,0.5,0.34,0.78,0.84,1.01c0.25,0.11,0.53,0.2,0.86,0.29c0.32,0.09,0.68,0.16,1.02,0.25c1.37,0.36,2.76,0.87,2.76,2.55
		C75.3,31.02,73.22,31.71,71.38,31.71z"/>
	<path d="M78.42,27.42v0.14c0,1.5,0.77,2.83,2.4,2.83c1.16,0,1.94-0.68,2.1-1.85h2c-0.34,2.23-2.1,3.15-4.17,3.15
		c-2.87,0-4.36-1.8-4.36-4.54c0-2.81,1.48-4.84,4.47-4.84c3.21,0,4.1,2.31,4.1,5.11H78.42z M80.82,23.63
		c-1.48,0-2.23,1.17-2.35,2.53h4.47C82.94,24.82,82.3,23.63,80.82,23.63z"/>
	<path d="M86.63,31.5V18.62h2.07V31.5H86.63z"/>
</g>
</svg>
